HIERARCHY
ROOT hip
{
  OFFSET 0 0 0
  CHANNELS 6 Xposition Yposition Zposition Zrotation Yrotation Xrotation
  JOINT abdomen
  {
    OFFSET 0 20.6881 -0.73152
    CHANNELS 3 Zrotation Xrotation Yrotation
    JOINT chest
    {
      OFFSET 0 11.7043 -0.48768
      CHANNELS 3 Zrotation Xrotation Yrotation
      JOINT neck
      {
        OFFSET 0 22.1894 -2.19456
        CHANNELS 3 Zrotation Xrotation Yrotation
        JOINT head
        {
          OFFSET -0.24384 7.07133 1.2192
          CHANNELS 3 Zrotation Xrotation Yrotation
          JOINT leftEye
          {
            OFFSET 4.14528 8.04674 8.04672
            CHANNELS 3 Zrotation Xrotation Yrotation
            End Site
            {
              OFFSET 1 0 0
            }
          }
          JOINT rightEye
          {
            OFFSET -3.6576 8.04674 8.04672
            CHANNELS 3 Zrotation Xrotation Yrotation
            End Site
            {
              OFFSET 1 0 0
            }
          }
        }
      }
      JOINT rCollar
      {
        OFFSET -2.68224 19.2634 -4.8768
        CHANNELS 3 Zrotation Xrotation Yrotation
        JOINT rShldr
        {
          OFFSET -8.77824 -1.95073 1.46304
          CHANNELS 3 Zrotation Xrotation Yrotation
          JOINT rForeArm
          {
            OFFSET -28.1742 -1.7115 0.48768
            CHANNELS 3 Zrotation Xrotation Yrotation
            JOINT rHand
            {
              OFFSET -22.5879 0.773209 7.07136
              CHANNELS 3 Zrotation Xrotation Yrotation
              JOINT rThumb1
              {
                OFFSET -1.2192 -0.487915 3.41376
                CHANNELS 3 Zrotation Xrotation Yrotation
                JOINT rThumb2
                {
                  OFFSET -3.37035 -0.52449 3.41376
                  CHANNELS 3 Zrotation Xrotation Yrotation
                  End Site
                  {
                    OFFSET -1.78271 -1.18214 1.43049
                  }
                }
              }
              JOINT rIndex1
              {
                OFFSET -7.75947 0.938293 5.60832
                CHANNELS 3 Zrotation Xrotation Yrotation
                JOINT rIndex2
                {
                  OFFSET -2.54057 -0.884171 1.56538
                  CHANNELS 3 Zrotation Xrotation Yrotation
                  End Site
                  {
                    OFFSET -1.62519 -0.234802 1.16502
                  }
                }
              }
              JOINT rMid1
              {
                OFFSET -8.24714 1.18213 3.41376
                CHANNELS 3 Zrotation Xrotation Yrotation
                JOINT rMid2
                {
                  OFFSET -3.10165 -0.590103 1.0647
                  CHANNELS 3 Zrotation Xrotation Yrotation
                  End Site
                  {
                    OFFSET -2.48547 -0.328903 0.83742
                  }
                }
              }
              JOINT rRing1
              {
                OFFSET -8.82822 0.546677 1.51678
                CHANNELS 3 Zrotation Xrotation Yrotation
                JOINT rRing2
                {
                  OFFSET -2.60934 -0.819778 -0.0198488
                  CHANNELS 3 Zrotation Xrotation Yrotation
                  End Site
                  {
                    OFFSET -2.33842 -0.294052 0.168128
                  }
                }
              }
              JOINT rPinky1
              {
                OFFSET -8.27202 -0.0477905 -0.4584
                CHANNELS 3 Zrotation Xrotation Yrotation
                JOINT rPinky2
                {
                  OFFSET -1.82734 -0.647385 -0.700984
                  CHANNELS 3 Zrotation Xrotation Yrotation
                  End Site
                  {
                    OFFSET -1.69225 -0.51767 -0.607171
                  }
                }
              }
            }
          }
        }
      }
      JOINT lCollar
      {
        OFFSET 2.68224 19.2634 -4.8768
        CHANNELS 3 Zrotation Xrotation Yrotation
        JOINT lShldr
        {
          OFFSET 8.77824 -1.95073 1.46304
          CHANNELS 3 Zrotation Xrotation Yrotation
          JOINT lForeArm
          {
            OFFSET 28.1742 -1.7115 0.48768
            CHANNELS 3 Zrotation Xrotation Yrotation
            JOINT lHand
            {
              OFFSET 22.5879 0.773209 7.07136
              CHANNELS 3 Zrotation Xrotation Yrotation
              JOINT lThumb1
              {
                OFFSET 1.2192 -0.487915 3.41376
                CHANNELS 3 Zrotation Xrotation Yrotation
                JOINT lThumb2
                {
                  OFFSET 3.37035 -0.52449 3.41376
                  CHANNELS 3 Zrotation Xrotation Yrotation
                  End Site
                  {
                    OFFSET 1.78271 -1.18214 1.43049
                  }
                }
              }
              JOINT lIndex1
              {
                OFFSET 7.75947 0.938293 5.60832
                CHANNELS 3 Zrotation Xrotation Yrotation
                JOINT lIndex2
                {
                  OFFSET 2.54057 -0.884171 1.56538
                  CHANNELS 3 Zrotation Xrotation Yrotation
                  End Site
                  {
                    OFFSET 1.62519 -0.234802 1.16502
                  }
                }
              }
              JOINT lMid1
              {
                OFFSET 8.24714 1.18213 3.41376
                CHANNELS 3 Zrotation Xrotation Yrotation
                JOINT lMid2
                {
                  OFFSET 3.10165 -0.590103 1.0647
                  CHANNELS 3 Zrotation Xrotation Yrotation
                  End Site
                  {
                    OFFSET 2.48547 -0.328903 0.83742
                  }
                }
              }
              JOINT lRing1
              {
                OFFSET 8.82822 0.546677 1.51678
                CHANNELS 3 Zrotation Xrotation Yrotation
                JOINT lRing2
                {
                  OFFSET 2.60934 -0.819778 -0.0198488
                  CHANNELS 3 Zrotation Xrotation Yrotation
                  End Site
                  {
                    OFFSET 2.33842 -0.294052 0.168128
                  }
                }
              }
              JOINT lPinky1
              {
                OFFSET 8.27202 -0.0477905 -0.4584
                CHANNELS 3 Zrotation Xrotation Yrotation
                JOINT lPinky2
                {
                  OFFSET 1.82734 -0.647385 -0.700984
                  CHANNELS 3 Zrotation Xrotation Yrotation
                  End Site
                  {
                    OFFSET 1.69225 -0.51767 -0.607171
                  }
                }
              }
            }
          }
        }
      }
    }
  }
  JOINT rButtock
  {
    OFFSET -8.77824 4.35084 1.2192
    CHANNELS 3 Zrotation Xrotation Yrotation
    JOINT rThigh
    {
      OFFSET 0 -1.70687 -2.19456
      CHANNELS 3 Zrotation Xrotation Yrotation
      JOINT rShin
      {
        OFFSET 0 -36.8199 0.73152
        CHANNELS 3 Zrotation Xrotation Yrotation
        JOINT rFoot
        {
          OFFSET 0.73152 -45.1104 -5.12064
          CHANNELS 3 Zrotation Xrotation Yrotation
          End Site
          {
            OFFSET -1.1221 -3.69964 12.103
          }
        }
      }
    }
  }
  JOINT lButtock
  {
    OFFSET 8.77824 4.35084 1.2192
    CHANNELS 3 Zrotation Xrotation Yrotation
    JOINT lThigh
    {
      OFFSET 0 -1.70687 -2.19456
      CHANNELS 3 Zrotation Xrotation Yrotation
      JOINT lShin
      {
        OFFSET 0 -36.8199 0.73152
        CHANNELS 3 Zrotation Xrotation Yrotation
        JOINT lFoot
        {
          OFFSET -0.73152 -45.1104 -5.12064
          CHANNELS 3 Zrotation Xrotation Yrotation
          End Site
          {
            OFFSET 1.1221 -3.69964 12.103
          }
        }
      }
    }
  }
}
MOTION
Frames:	6
Frame Time:	0.03333
3.6185299930366455 60.27910113334656 60.111099638743326 -6.285182476043701 45.573001861572266 -7.199012279510498 3.9508309364318848 14.74358081817627 -9.989115715026855 10.060296058654785 -10.582023620605469 -1.677580714225769 -9.993581771850586 14.831499099731445 -11.113204956054688 8.739781379699707 -26.060396194458008 -19.73029899597168 -0.0 0.0 -0.0 -0.0 0.0 -0.0 -0.0 0.0 -0.0 47.64936065673828 15.06863784790039 33.555171966552734 -28.478496551513672 -35.84159851074219 76.35440063476562 -0.8799365758895874 25.928932189941406 3.909027576446533 -0.0 0.0 -0.0 -0.0 0.0 -0.0 -0.0 0.0 -0.0 7.73087739944458 5.47489595413208 0.41732463240623474 -0.0 0.0 -0.0 2.9054994583129883 0.9650753736495972 0.10300876200199127 -0.0 0.0 -0.0 10.278595924377441 0.7317469120025635 0.026285577565431595 -0.0 0.0 -0.0 2.221662759780884 -0.7335850596427917 -0.20831839740276337 -0.0 0.0 -0.0 -35.68020248413086 81.45750427246094 -44.050880432128906 27.929594039916992 -40.181705474853516 -84.76139831542969 49.68793869018555 -80.25373077392578 57.23134994506836 -0.0 0.0 -0.0 -0.0 0.0 -0.0 -0.0 0.0 -0.0 -7.73087739944458 5.47489595413208 -0.41732463240623474 -0.0 0.0 -0.0 -2.9054994583129883 0.9650753736495972 -0.10300876200199127 -0.0 0.0 -0.0 -10.278595924377441 0.7317469120025635 -0.026285577565431595 -0.0 0.0 -0.0 -2.221662759780884 -0.7335850596427917 0.20831839740276337 -0.0 0.0 -0.0 -34.81719970703125 -45.389892578125 -26.815298080444336 -0.36426669359207153 41.4591064453125 0.4579446315765381 -0.8333268165588379 27.150684356689453 3.6384496688842773 -0.0 0.0 -0.0 20.309589385986328 -31.79389762878418 25.79498863220215 2.458594799041748 75.02631378173828 -4.292913913726807 9.670534133911133 -25.969005584716797 21.06269645690918
3.6721799941005884 59.6002995967865 61.898199626011774 -7.707289218902588 48.406497955322266 -8.675101280212402 3.772453784942627 14.512696266174316 -10.957087516784668 10.48270320892334 -10.161084175109863 -1.9389702081680298 -9.86123275756836 15.633604049682617 -11.800390243530273 9.517617225646973 -25.218196868896484 -21.04350471496582 -0.0 0.0 -0.0 -0.0 0.0 -0.0 -0.0 0.0 -0.0 49.7073974609375 10.558911323547363 33.28839874267578 -28.21029281616211 -31.505300521850586 69.08389282226562 -0.491713285446167 19.816923141479492 2.8956539630889893 -0.0 0.0 -0.0 -0.0 0.0 -0.0 -0.0 0.0 -0.0 7.73087739944458 5.47489595413208 0.41732463240623474 -0.0 0.0 -0.0 2.9054994583129883 0.9650753736495972 0.10300876200199127 -0.0 0.0 -0.0 10.278595924377441 0.7317469120025635 0.026285577565431595 -0.0 0.0 -0.0 2.221662759780884 -0.7335850596427917 -0.20831839740276337 -0.0 0.0 -0.0 -62.09420394897461 81.8219223022461 -14.585482597351074 27.87820053100586 -40.81840133666992 -85.58390808105469 44.23353576660156 -79.7498550415039 51.75960159301758 -0.0 0.0 -0.0 -0.0 0.0 -0.0 -0.0 0.0 -0.0 -7.73087739944458 5.47489595413208 -0.41732463240623474 -0.0 0.0 -0.0 -2.9054994583129883 0.9650753736495972 -0.10300876200199127 -0.0 0.0 -0.0 -10.278595924377441 0.7317469120025635 -0.026285577565431595 -0.0 0.0 -0.0 -2.221662759780884 -0.7335850596427917 0.20831839740276337 -0.0 0.0 -0.0 -35.314903259277344 -43.376007080078125 -27.79529571533203 -0.3746108412742615 41.950599670410156 0.5114899277687073 -0.30737051367759705 25.996110916137695 2.67545485496521 -0.0 0.0 -0.0 22.332096099853516 -31.95670509338379 24.816396713256836 2.832700729370117 76.68962097167969 -4.790445327758789 9.71138858795166 -26.64420509338379 20.885292053222656
3.732519993718597 58.78689885139465 63.471499615116045 -8.405192375183105 49.80419158935547 -9.73531723022461 3.2750401496887207 14.565510749816895 -10.526077270507812 10.263212203979492 -10.109997749328613 -1.8440619707107544 -9.655348777770996 16.48569107055664 -12.56719970703125 10.189188003540039 -24.975597381591797 -22.50950050354004 -0.0 0.0 -0.0 -0.0 0.0 -0.0 -0.0 0.0 -0.0 50.2715950012207 7.32465934753418 32.763092041015625 -27.492605209350586 -28.361095428466797 65.03399658203125 -0.3546263873577118 16.689605712890625 2.417288064956665 -0.0 0.0 -0.0 -0.0 0.0 -0.0 -0.0 0.0 -0.0 7.73087739944458 5.47489595413208 0.41732463240623474 -0.0 0.0 -0.0 2.9054994583129883 0.9650753736495972 0.10300876200199127 -0.0 0.0 -0.0 10.278595924377441 0.7317469120025635 0.026285577565431595 -0.0 0.0 -0.0 2.221662759780884 -0.7335850596427917 -0.20831839740276337 -0.0 0.0 -0.0 -72.74699401855469 82.05909729003906 -2.1535863876342773 27.921199798583984 -40.81719207763672 -85.39419555664062 30.168121337890625 -77.02964782714844 37.45280838012695 -0.0 0.0 -0.0 -0.0 0.0 -0.0 -0.0 0.0 -0.0 -7.73087739944458 5.47489595413208 -0.41732463240623474 -0.0 0.0 -0.0 -2.9054994583129883 0.9650753736495972 -0.10300876200199127 -0.0 0.0 -0.0 -10.278595924377441 0.7317469120025635 -0.026285577565431595 -0.0 0.0 -0.0 -2.221662759780884 -0.7335850596427917 0.20831839740276337 -0.0 0.0 -0.0 -35.86569595336914 -42.481201171875 -29.554405212402344 -0.41680851578712463 43.41579818725586 0.5597030520439148 -0.11189837753772736 23.33049774169922 2.365891695022583 -0.0 0.0 -0.0 23.928102493286133 -31.672897338867188 24.71889305114746 3.236581802368164 78.27328491210938 -5.38008451461792 10.258713722229004 -27.19198989868164 21.683406829833984
3.7463499942532508 58.003801107406616 64.81079959194176 -8.300396919250488 49.95499801635742 -10.037405967712402 2.4495553970336914 14.895589828491211 -8.693669319152832 9.402695655822754 -10.428486824035645 -1.3926336765289307 -9.369826316833496 17.385290145874023 -13.41619873046875 10.705307960510254 -25.312496185302734 -24.146099090576172 -0.0 0.0 -0.0 -0.0 0.0 -0.0 -0.0 0.0 -0.0 49.314910888671875 5.328403472900391 31.83839988708496 -27.238100051879883 -27.222698211669922 62.93099594116211 -0.3690650463104248 16.556684494018555 2.3987936973571777 -0.0 0.0 -0.0 -0.0 0.0 -0.0 -0.0 0.0 -0.0 7.73087739944458 5.47489595413208 0.41732463240623474 -0.0 0.0 -0.0 2.9054994583129883 0.9650753736495972 0.10300876200199127 -0.0 0.0 -0.0 10.278595924377441 0.7317469120025635 0.026285577565431595 -0.0 0.0 -0.0 2.221662759780884 -0.7335850596427917 -0.20831839740276337 -0.0 0.0 -0.0 -68.38377380371094 83.7509994506836 -6.091080188751221 28.049894332885742 -40.16661071777344 -84.2041015625 17.51325035095215 -71.19890594482422 24.30855941772461 -0.0 0.0 -0.0 -0.0 0.0 -0.0 -0.0 0.0 -0.0 -7.73087739944458 5.47489595413208 -0.41732463240623474 -0.0 0.0 -0.0 -2.9054994583129883 0.9650753736495972 -0.10300876200199127 -0.0 0.0 -0.0 -10.278595924377441 0.7317469120025635 -0.026285577565431595 -0.0 0.0 -0.0 -2.221662759780884 -0.7335850596427917 0.20831839740276337 -0.0 0.0 -0.0 -36.56229782104492 -42.63810348510742 -32.12361145019531 -0.49680617451667786 45.85470199584961 0.6067826151847839 -0.17705826461315155 19.16061019897461 2.6895523071289062 -0.0 0.0 -0.0 25.084896087646484 -30.948999404907227 25.498796463012695 3.699425220489502 79.77717590332031 -6.090819358825684 11.342013359069824 -27.584897994995117 23.46649742126465
3.709119993072818 57.36899971961975 65.94849961693399 -7.738687515258789 49.34339904785156 -9.61080265045166 1.7520461082458496 14.946207046508789 -6.921365261077881 8.61910629272461 -10.734479904174805 -0.9588256478309631 -9.152878761291504 18.181285858154297 -13.936802864074707 11.022202491760254 -26.17750358581543 -25.129695892333984 -0.0 0.0 -0.0 -0.0 0.0 -0.0 -0.0 0.0 -0.0 48.074501037597656 4.4051289558410645 30.921001434326172 -27.086395263671875 -26.641813278198242 61.95880126953125 -0.4111917316913605 17.930706024169922 2.605923891067505 -0.0 0.0 -0.0 -0.0 0.0 -0.0 -0.0 0.0 -0.0 7.73087739944458 5.47489595413208 0.41732463240623474 -0.0 0.0 -0.0 2.9054994583129883 0.9650753736495972 0.10300876200199127 -0.0 0.0 -0.0 10.278595924377441 0.7317469120025635 0.026285577565431595 -0.0 0.0 -0.0 2.221662759780884 -0.7335850596427917 -0.20831839740276337 -0.0 0.0 -0.0 -68.23439025878906 83.95479583740234 -6.658977508544922 28.093406677246094 -39.87909698486328 -83.71289825439453 14.951763153076172 -69.08096313476562 21.587135314941406 -0.0 0.0 -0.0 -0.0 0.0 -0.0 -0.0 0.0 -0.0 -7.73087739944458 5.47489595413208 -0.41732463240623474 -0.0 0.0 -0.0 -2.9054994583129883 0.9650753736495972 -0.10300876200199127 -0.0 0.0 -0.0 -10.278595924377441 0.7317469120025635 -0.026285577565431595 -0.0 0.0 -0.0 -2.221662759780884 -0.7335850596427917 0.20831839740276337 -0.0 0.0 -0.0 -37.37990188598633 -43.464698791503906 -34.316795349121094 -0.5800079703330994 48.20879364013672 0.6629254817962646 -0.24243779480457306 16.045183181762695 3.126638412475586 -0.0 0.0 -0.0 26.09381103515625 -30.33378791809082 26.581905364990234 4.14431095123291 80.89801025390625 -6.746419906616211 12.364117622375488 -27.865198135375977 25.120101928710938
3.667809992839466 56.904399394989014 66.9357996142935 -7.153497695922852 48.50689697265625 -8.800602912902832 1.2088106870651245 14.71558666229248 -5.215844631195068 7.911924839019775 -11.027997970581055 -0.5428118109703064 -9.022374153137207 18.879804611206055 -14.123197555541992 11.146284103393555 -27.589887619018555 -25.472095489501953 -0.0 0.0 -0.0 -0.0 0.0 -0.0 -0.0 0.0 -0.0 46.6028938293457 4.585074424743652 29.972801208496094 -27.111804962158203 -26.722593307495117 62.05149459838867 -0.5475059747695923 20.809093475341797 3.058573007583618 -0.0 0.0 -0.0 -0.0 0.0 -0.0 -0.0 0.0 -0.0 7.73087739944458 5.47489595413208 0.41732463240623474 -0.0 0.0 -0.0 2.9054994583129883 0.9650753736495972 0.10300876200199127 -0.0 0.0 -0.0 10.278595924377441 0.7317469120025635 0.026285577565431595 -0.0 0.0 -0.0 2.221662759780884 -0.7335850596427917 -0.20831839740276337 -0.0 0.0 -0.0 -72.92937469482422 82.68090057373047 -3.2300872802734375 28.078092575073242 -39.97540283203125 -83.88129425048828 17.465076446533203 -71.0843734741211 24.244853973388672 -0.0 0.0 -0.0 -0.0 0.0 -0.0 -0.0 0.0 -0.0 -7.73087739944458 5.47489595413208 -0.41732463240623474 -0.0 0.0 -0.0 -2.9054994583129883 0.9650753736495972 -0.10300876200199127 -0.0 0.0 -0.0 -10.278595924377441 0.7317469120025635 -0.026285577565431595 -0.0 0.0 -0.0 -2.221662759780884 -0.7335850596427917 0.20831839740276337 -0.0 0.0 -0.0 -38.39828872680664 -44.976192474365234 -36.22129440307617 -0.6642487645149231 50.4783935546875 0.7272277474403381 -0.31254565715789795 13.983596801757812 3.673753261566162 -0.0 0.0 -0.0 26.953901290893555 -29.818496704101562 27.964393615722656 4.456698417663574 81.63687896728516 -7.232749938964844 13.312199592590332 -28.041406631469727 26.638105392456055
